<mxfile host="app.diagrams.net" modified="2022-05-25T08:07:48.601Z" agent="5.0 (Macintosh; Intel Mac OS X 10_15_3) AppleWebKit/537.36 (KHTML, like Gecko) Chrome/101.0.4951.64 Safari/537.36" etag="oKoSlGBpsV_kkq2gVHSh" version="18.0.6" type="github">
  <diagram name="Page-1" id="c4acf3e9-155e-7222-9cf6-157b1a14988f">
    <mxGraphModel dx="1933" dy="2328" grid="1" gridSize="10" guides="1" tooltips="1" connect="1" arrows="1" fold="1" page="1" pageScale="1" pageWidth="850" pageHeight="1100" background="none" math="0" shadow="0">
      <root>
        <mxCell id="0" />
        <mxCell id="1" parent="0" />
        <mxCell id="fuyfgmNVLUuhkr_44X1W-9" value="Engine" style="shape=umlFrame;whiteSpace=wrap;html=1;rounded=0;shadow=0;comic=0;labelBackgroundColor=none;strokeWidth=1;fontFamily=Verdana;fontSize=10;align=center;" parent="1" vertex="1">
          <mxGeometry x="20" y="-640" width="2770" height="560" as="geometry" />
        </mxCell>
        <mxCell id="17acba5748e5396b-1" value="Kernel" style="shape=umlFrame;whiteSpace=wrap;html=1;rounded=0;shadow=0;comic=0;labelBackgroundColor=none;strokeWidth=1;fontFamily=Verdana;fontSize=10;align=center;" parent="1" vertex="1">
          <mxGeometry x="20" width="2770" height="880" as="geometry" />
        </mxCell>
        <mxCell id="5d2195bd80daf111-18" value="&lt;p style=&quot;margin: 0px ; margin-top: 4px ; text-align: center&quot;&gt;&lt;i&gt;Text&lt;/i&gt;&lt;/p&gt;&lt;hr size=&quot;1&quot;&gt;&lt;p style=&quot;margin: 0px ; margin-left: 4px&quot;&gt;value&lt;/p&gt;&lt;p style=&quot;margin: 0px ; margin-left: 4px&quot;&gt;width&lt;/p&gt;&lt;hr size=&quot;1&quot;&gt;&lt;p style=&quot;margin: 0px ; margin-left: 4px&quot;&gt;+ method1(Type): Type&lt;br&gt;+ method2(Type, Type): Type&lt;/p&gt;" style="verticalAlign=top;align=left;overflow=fill;fontSize=12;fontFamily=Helvetica;html=1;rounded=0;shadow=0;comic=0;labelBackgroundColor=none;strokeWidth=1" parent="1" vertex="1">
          <mxGeometry x="60" y="80" width="190" height="120" as="geometry" />
        </mxCell>
        <mxCell id="0qslpQPDbHQwRN-v0XV1-1" value="&lt;p style=&quot;margin: 0px ; margin-top: 4px ; text-align: center&quot;&gt;&lt;i&gt;TextWidget&lt;/i&gt;&lt;/p&gt;&lt;hr size=&quot;1&quot;&gt;&lt;p style=&quot;margin: 0px ; margin-left: 4px&quot;&gt;content: Text[]&lt;/p&gt;&lt;p style=&quot;margin: 0px ; margin-left: 4px&quot;&gt;fontSize: number&lt;/p&gt;&lt;p style=&quot;margin: 0px ; margin-left: 4px&quot;&gt;color: string&lt;/p&gt;&lt;hr size=&quot;1&quot;&gt;&lt;p style=&quot;margin: 0px ; margin-left: 4px&quot;&gt;+ method1(Type): Type&lt;br&gt;+ method2(Type, Type): Type&lt;/p&gt;" style="verticalAlign=top;align=left;overflow=fill;fontSize=12;fontFamily=Helvetica;html=1;rounded=0;shadow=0;comic=0;labelBackgroundColor=none;strokeWidth=1" parent="1" vertex="1">
          <mxGeometry x="320" y="80" width="190" height="120" as="geometry" />
        </mxCell>
        <mxCell id="0qslpQPDbHQwRN-v0XV1-2" value="&lt;p style=&quot;margin: 0px ; margin-top: 4px ; text-align: center&quot;&gt;&lt;i&gt;HtmlWidget&lt;/i&gt;&lt;/p&gt;&lt;hr size=&quot;1&quot;&gt;&lt;p style=&quot;margin: 0px ; margin-left: 4px&quot;&gt;content: String&lt;/p&gt;&lt;hr size=&quot;1&quot;&gt;&lt;p style=&quot;margin: 0px ; margin-left: 4px&quot;&gt;+ method1(Type): Type&lt;br&gt;+ method2(Type, Type): Type&lt;/p&gt;" style="verticalAlign=top;align=left;overflow=fill;fontSize=12;fontFamily=Helvetica;html=1;rounded=0;shadow=0;comic=0;labelBackgroundColor=none;strokeWidth=1" parent="1" vertex="1">
          <mxGeometry x="480" y="240" width="190" height="120" as="geometry" />
        </mxCell>
        <mxCell id="0qslpQPDbHQwRN-v0XV1-3" value="&lt;p style=&quot;margin: 0px ; margin-top: 4px ; text-align: center&quot;&gt;&lt;i&gt;BlankWidget&lt;/i&gt;&lt;/p&gt;&lt;hr size=&quot;1&quot;&gt;&lt;p style=&quot;margin: 0px ; margin-left: 4px&quot;&gt;content: String&lt;/p&gt;&lt;hr size=&quot;1&quot;&gt;&lt;p style=&quot;margin: 0px ; margin-left: 4px&quot;&gt;+ method1(Type): Type&lt;br&gt;+ method2(Type, Type): Type&lt;/p&gt;" style="verticalAlign=top;align=left;overflow=fill;fontSize=12;fontFamily=Helvetica;html=1;rounded=0;shadow=0;comic=0;labelBackgroundColor=none;strokeWidth=1" parent="1" vertex="1">
          <mxGeometry x="640" y="400" width="190" height="120" as="geometry" />
        </mxCell>
        <mxCell id="0qslpQPDbHQwRN-v0XV1-4" value="Use" style="endArrow=open;endSize=12;dashed=1;html=1;rounded=0;exitX=0;exitY=0.5;exitDx=0;exitDy=0;entryX=1;entryY=0.5;entryDx=0;entryDy=0;" parent="1" source="0qslpQPDbHQwRN-v0XV1-1" target="5d2195bd80daf111-18" edge="1">
          <mxGeometry width="160" relative="1" as="geometry">
            <mxPoint x="290" y="190" as="sourcePoint" />
            <mxPoint x="450" y="190" as="targetPoint" />
          </mxGeometry>
        </mxCell>
        <mxCell id="0qslpQPDbHQwRN-v0XV1-5" value="&lt;p style=&quot;margin: 0px ; margin-top: 4px ; text-align: center&quot;&gt;&lt;i&gt;Line&lt;/i&gt;&lt;/p&gt;&lt;hr size=&quot;1&quot;&gt;&lt;p style=&quot;margin: 0px ; margin-left: 4px&quot;&gt;content: Widget[]&lt;/p&gt;&lt;p style=&quot;margin: 0px ; margin-left: 4px&quot;&gt;lineHeight: string&lt;br&gt;&lt;/p&gt;&lt;hr size=&quot;1&quot;&gt;&lt;p style=&quot;margin: 0px ; margin-left: 4px&quot;&gt;+ method1(Type): Type&lt;br&gt;+ method2(Type, Type): Type&lt;/p&gt;" style="verticalAlign=top;align=left;overflow=fill;fontSize=12;fontFamily=Helvetica;html=1;rounded=0;shadow=0;comic=0;labelBackgroundColor=none;strokeWidth=1" parent="1" vertex="1">
          <mxGeometry x="720" y="-420" width="190" height="120" as="geometry" />
        </mxCell>
        <mxCell id="0qslpQPDbHQwRN-v0XV1-6" value="&lt;p style=&quot;margin: 0px ; margin-top: 4px ; text-align: center&quot;&gt;&lt;i&gt;BaseWidget&lt;/i&gt;&lt;/p&gt;&lt;hr size=&quot;1&quot;&gt;&lt;p style=&quot;margin: 0px ; margin-left: 4px&quot;&gt;width: number&lt;/p&gt;&lt;p style=&quot;margin: 0px ; margin-left: 4px&quot;&gt;height: number&lt;/p&gt;&lt;p style=&quot;margin: 0px ; margin-left: 4px&quot;&gt;canSplitHeight: boolean&lt;/p&gt;&lt;hr size=&quot;1&quot;&gt;&lt;p style=&quot;margin: 0px ; margin-left: 4px&quot;&gt;+ method1(Type): Type&lt;br&gt;+ method2(Type, Type): Type&lt;/p&gt;" style="verticalAlign=top;align=left;overflow=fill;fontSize=12;fontFamily=Helvetica;html=1;rounded=0;shadow=0;comic=0;labelBackgroundColor=none;strokeWidth=1" parent="1" vertex="1">
          <mxGeometry x="320" y="570" width="190" height="120" as="geometry" />
        </mxCell>
        <mxCell id="0qslpQPDbHQwRN-v0XV1-8" value="Use" style="endArrow=open;endSize=12;dashed=1;html=1;rounded=0;exitX=0;exitY=0.5;exitDx=0;exitDy=0;entryX=1;entryY=0.5;entryDx=0;entryDy=0;" parent="1" source="0qslpQPDbHQwRN-v0XV1-16" target="0qslpQPDbHQwRN-v0XV1-1" edge="1">
          <mxGeometry width="160" relative="1" as="geometry">
            <mxPoint x="430" y="420" as="sourcePoint" />
            <mxPoint x="590" y="420" as="targetPoint" />
          </mxGeometry>
        </mxCell>
        <mxCell id="0qslpQPDbHQwRN-v0XV1-11" value="Use" style="endArrow=open;endSize=12;dashed=1;html=1;rounded=0;entryX=1;entryY=0.25;entryDx=0;entryDy=0;exitX=0;exitY=0.5;exitDx=0;exitDy=0;" parent="1" source="0qslpQPDbHQwRN-v0XV1-16" target="0qslpQPDbHQwRN-v0XV1-2" edge="1">
          <mxGeometry width="160" relative="1" as="geometry">
            <mxPoint x="890" y="140" as="sourcePoint" />
            <mxPoint x="520" y="150" as="targetPoint" />
          </mxGeometry>
        </mxCell>
        <mxCell id="0qslpQPDbHQwRN-v0XV1-12" value="Use" style="endArrow=open;endSize=12;dashed=1;html=1;rounded=0;entryX=0.5;entryY=0;entryDx=0;entryDy=0;" parent="1" target="0qslpQPDbHQwRN-v0XV1-3" edge="1">
          <mxGeometry width="160" relative="1" as="geometry">
            <mxPoint x="1070" y="140" as="sourcePoint" />
            <mxPoint x="645" y="210" as="targetPoint" />
          </mxGeometry>
        </mxCell>
        <mxCell id="0qslpQPDbHQwRN-v0XV1-13" value="Extends" style="endArrow=block;endSize=16;endFill=0;html=1;rounded=0;exitX=0.5;exitY=1;exitDx=0;exitDy=0;" parent="1" source="0qslpQPDbHQwRN-v0XV1-1" target="0qslpQPDbHQwRN-v0XV1-6" edge="1">
          <mxGeometry width="160" relative="1" as="geometry">
            <mxPoint x="370" y="390" as="sourcePoint" />
            <mxPoint x="530" y="390" as="targetPoint" />
          </mxGeometry>
        </mxCell>
        <mxCell id="0qslpQPDbHQwRN-v0XV1-14" value="Extends" style="endArrow=block;endSize=16;endFill=0;html=1;rounded=0;exitX=0.5;exitY=1;exitDx=0;exitDy=0;entryX=0.75;entryY=0;entryDx=0;entryDy=0;" parent="1" source="0qslpQPDbHQwRN-v0XV1-2" target="0qslpQPDbHQwRN-v0XV1-6" edge="1">
          <mxGeometry width="160" relative="1" as="geometry">
            <mxPoint x="425" y="210" as="sourcePoint" />
            <mxPoint x="425" y="580" as="targetPoint" />
          </mxGeometry>
        </mxCell>
        <mxCell id="0qslpQPDbHQwRN-v0XV1-15" value="Extends" style="endArrow=block;endSize=16;endFill=0;html=1;rounded=0;exitX=0;exitY=0.75;exitDx=0;exitDy=0;entryX=1;entryY=0;entryDx=0;entryDy=0;" parent="1" source="0qslpQPDbHQwRN-v0XV1-3" target="0qslpQPDbHQwRN-v0XV1-6" edge="1">
          <mxGeometry width="160" relative="1" as="geometry">
            <mxPoint x="645" y="330" as="sourcePoint" />
            <mxPoint x="472.5" y="580" as="targetPoint" />
          </mxGeometry>
        </mxCell>
        <mxCell id="0qslpQPDbHQwRN-v0XV1-16" value="&lt;p style=&quot;margin: 0px ; margin-top: 4px ; text-align: center&quot;&gt;&lt;i&gt;Paragraph&lt;/i&gt;&lt;br&gt;&lt;/p&gt;&lt;hr size=&quot;1&quot;&gt;&lt;p style=&quot;margin: 0px ; margin-left: 4px&quot;&gt;content: BaseWidget[]&lt;/p&gt;&lt;p style=&quot;margin: 0px ; margin-left: 4px&quot;&gt;lineHeight: string&lt;br&gt;margin: string[]&lt;/p&gt;&lt;hr size=&quot;1&quot;&gt;&lt;p style=&quot;margin: 0px ; margin-left: 4px&quot;&gt;+ method1(Type): Type&lt;br&gt;+ method2(Type, Type): Type&lt;/p&gt;" style="verticalAlign=top;align=left;overflow=fill;fontSize=12;fontFamily=Helvetica;html=1;rounded=0;shadow=0;comic=0;labelBackgroundColor=none;strokeWidth=1" parent="1" vertex="1">
          <mxGeometry x="1070" y="80" width="190" height="120" as="geometry" />
        </mxCell>
        <mxCell id="0qslpQPDbHQwRN-v0XV1-17" value="Use" style="endArrow=open;endSize=12;dashed=1;html=1;rounded=0;entryX=1;entryY=0.5;entryDx=0;entryDy=0;exitX=0;exitY=0.5;exitDx=0;exitDy=0;" parent="1" source="0qslpQPDbHQwRN-v0XV1-5" target="fuyfgmNVLUuhkr_44X1W-13" edge="1">
          <mxGeometry width="160" relative="1" as="geometry">
            <mxPoint x="810" y="150" as="sourcePoint" />
            <mxPoint x="650" y="240" as="targetPoint" />
          </mxGeometry>
        </mxCell>
        <mxCell id="0qslpQPDbHQwRN-v0XV1-18" value="&lt;p style=&quot;margin: 0px ; margin-top: 4px ; text-align: center&quot;&gt;&lt;i&gt;BlankModel&lt;/i&gt;&lt;br&gt;&lt;/p&gt;&lt;hr size=&quot;1&quot;&gt;&lt;p style=&quot;margin: 0px ; margin-left: 4px&quot;&gt;?&lt;/p&gt;&lt;hr size=&quot;1&quot;&gt;&lt;p style=&quot;margin: 0px ; margin-left: 4px&quot;&gt;+ method1(Type): Type&lt;br&gt;+ method2(Type, Type): Type&lt;/p&gt;" style="verticalAlign=top;align=left;overflow=fill;fontSize=12;fontFamily=Helvetica;html=1;rounded=0;shadow=0;comic=0;labelBackgroundColor=none;strokeWidth=1" parent="1" vertex="1">
          <mxGeometry x="1210" y="240" width="190" height="120" as="geometry" />
        </mxCell>
        <mxCell id="0qslpQPDbHQwRN-v0XV1-19" value="Use" style="endArrow=open;endSize=12;dashed=1;html=1;rounded=0;entryX=1;entryY=0.75;entryDx=0;entryDy=0;exitX=0;exitY=0.5;exitDx=0;exitDy=0;" parent="1" source="0qslpQPDbHQwRN-v0XV1-18" target="0qslpQPDbHQwRN-v0XV1-1" edge="1">
          <mxGeometry width="160" relative="1" as="geometry">
            <mxPoint x="1090" y="310" as="sourcePoint" />
            <mxPoint x="1270" y="300" as="targetPoint" />
          </mxGeometry>
        </mxCell>
        <mxCell id="0qslpQPDbHQwRN-v0XV1-20" value="&lt;p style=&quot;margin: 0px ; margin-top: 4px ; text-align: center&quot;&gt;&lt;i&gt;Column&lt;/i&gt;&lt;br&gt;&lt;/p&gt;&lt;hr size=&quot;1&quot;&gt;&lt;p style=&quot;margin: 0px ; margin-left: 4px&quot;&gt;content:&amp;nbsp;&lt;i style=&quot;text-align: center&quot;&gt;Line&lt;/i&gt;[]&lt;/p&gt;&lt;hr size=&quot;1&quot;&gt;&lt;p style=&quot;margin: 0px ; margin-left: 4px&quot;&gt;+ method1(Type): Type&lt;br&gt;+ method2(Type, Type): Type&lt;/p&gt;" style="verticalAlign=top;align=left;overflow=fill;fontSize=12;fontFamily=Helvetica;html=1;rounded=0;shadow=0;comic=0;labelBackgroundColor=none;strokeWidth=1" parent="1" vertex="1">
          <mxGeometry x="1000" y="-420" width="190" height="120" as="geometry" />
        </mxCell>
        <mxCell id="0qslpQPDbHQwRN-v0XV1-21" value="&lt;p style=&quot;margin: 0px ; margin-top: 4px ; text-align: center&quot;&gt;&lt;i&gt;Page&lt;/i&gt;&lt;br&gt;&lt;/p&gt;&lt;hr size=&quot;1&quot;&gt;&lt;p style=&quot;margin: 0px ; margin-left: 4px&quot;&gt;content: Column[]&lt;/p&gt;&lt;p style=&quot;margin: 0px ; margin-left: 4px&quot;&gt;header: PageHeader&lt;/p&gt;&lt;p style=&quot;margin: 0px ; margin-left: 4px&quot;&gt;no: number&lt;/p&gt;&lt;hr size=&quot;1&quot;&gt;&lt;p style=&quot;margin: 0px ; margin-left: 4px&quot;&gt;+ method1(Type): Type&lt;br&gt;+ method2(Type, Type): Type&lt;/p&gt;" style="verticalAlign=top;align=left;overflow=fill;fontSize=12;fontFamily=Helvetica;html=1;rounded=0;shadow=0;comic=0;labelBackgroundColor=none;strokeWidth=1" parent="1" vertex="1">
          <mxGeometry x="1280" y="-420" width="190" height="120" as="geometry" />
        </mxCell>
        <mxCell id="0qslpQPDbHQwRN-v0XV1-23" value="Use" style="endArrow=open;endSize=12;dashed=1;html=1;rounded=0;entryX=1;entryY=0.5;entryDx=0;entryDy=0;exitX=0;exitY=0.5;exitDx=0;exitDy=0;" parent="1" source="0qslpQPDbHQwRN-v0XV1-21" target="0qslpQPDbHQwRN-v0XV1-20" edge="1">
          <mxGeometry width="160" relative="1" as="geometry">
            <mxPoint x="1145" y="30" as="sourcePoint" />
            <mxPoint x="1055" y="30" as="targetPoint" />
          </mxGeometry>
        </mxCell>
        <mxCell id="0qslpQPDbHQwRN-v0XV1-24" value="&lt;p style=&quot;margin: 0px ; margin-top: 4px ; text-align: center&quot;&gt;&lt;i&gt;ChoiceModel&lt;/i&gt;&lt;br&gt;&lt;/p&gt;&lt;hr size=&quot;1&quot;&gt;&lt;p style=&quot;margin: 0px ; margin-left: 4px&quot;&gt;?&lt;/p&gt;&lt;hr size=&quot;1&quot;&gt;&lt;p style=&quot;margin: 0px ; margin-left: 4px&quot;&gt;+ method1(Type): Type&lt;br&gt;+ method2(Type, Type): Type&lt;/p&gt;" style="verticalAlign=top;align=left;overflow=fill;fontSize=12;fontFamily=Helvetica;html=1;rounded=0;shadow=0;comic=0;labelBackgroundColor=none;strokeWidth=1" parent="1" vertex="1">
          <mxGeometry x="1350" y="400" width="190" height="120" as="geometry" />
        </mxCell>
        <mxCell id="0qslpQPDbHQwRN-v0XV1-25" value="&lt;p style=&quot;margin: 0px ; margin-top: 4px ; text-align: center&quot;&gt;&lt;i&gt;SubjectModel&lt;/i&gt;&lt;br&gt;&lt;/p&gt;&lt;hr size=&quot;1&quot;&gt;&lt;p style=&quot;margin: 0px ; margin-left: 4px&quot;&gt;?&lt;/p&gt;&lt;hr size=&quot;1&quot;&gt;&lt;p style=&quot;margin: 0px ; margin-left: 4px&quot;&gt;+ method1(Type): Type&lt;br&gt;+ method2(Type, Type): Type&lt;/p&gt;" style="verticalAlign=top;align=left;overflow=fill;fontSize=12;fontFamily=Helvetica;html=1;rounded=0;shadow=0;comic=0;labelBackgroundColor=none;strokeWidth=1" parent="1" vertex="1">
          <mxGeometry x="1490" y="560" width="190" height="120" as="geometry" />
        </mxCell>
        <mxCell id="0qslpQPDbHQwRN-v0XV1-26" value="&lt;p style=&quot;margin: 0px ; margin-top: 4px ; text-align: center&quot;&gt;&lt;i&gt;Model&lt;/i&gt;&lt;br&gt;&lt;/p&gt;&lt;hr size=&quot;1&quot;&gt;&lt;p style=&quot;margin: 0px ; margin-left: 4px&quot;&gt;widgetList: Widget[]&lt;/p&gt;&lt;hr size=&quot;1&quot;&gt;&lt;p style=&quot;margin: 0px ; margin-left: 4px&quot;&gt;+ method1(Type): Type&lt;br&gt;+ method2(Type, Type): Type&lt;/p&gt;" style="verticalAlign=top;align=left;overflow=fill;fontSize=12;fontFamily=Helvetica;html=1;rounded=0;shadow=0;comic=0;labelBackgroundColor=none;strokeWidth=1" parent="1" vertex="1">
          <mxGeometry x="1210" y="730" width="190" height="120" as="geometry" />
        </mxCell>
        <mxCell id="0qslpQPDbHQwRN-v0XV1-27" value="Extends" style="endArrow=block;endSize=16;endFill=0;html=1;rounded=0;exitX=0.5;exitY=1;exitDx=0;exitDy=0;entryX=0.5;entryY=0;entryDx=0;entryDy=0;" parent="1" source="0qslpQPDbHQwRN-v0XV1-18" target="0qslpQPDbHQwRN-v0XV1-26" edge="1">
          <mxGeometry width="160" relative="1" as="geometry">
            <mxPoint x="195" y="370" as="sourcePoint" />
            <mxPoint x="195" y="740" as="targetPoint" />
          </mxGeometry>
        </mxCell>
        <mxCell id="0qslpQPDbHQwRN-v0XV1-28" value="Extends" style="endArrow=block;endSize=16;endFill=0;html=1;rounded=0;exitX=0.5;exitY=1;exitDx=0;exitDy=0;entryX=0.75;entryY=0;entryDx=0;entryDy=0;" parent="1" source="0qslpQPDbHQwRN-v0XV1-24" target="0qslpQPDbHQwRN-v0XV1-26" edge="1">
          <mxGeometry width="160" relative="1" as="geometry">
            <mxPoint x="1315" y="370" as="sourcePoint" />
            <mxPoint x="1315" y="740" as="targetPoint" />
          </mxGeometry>
        </mxCell>
        <mxCell id="0qslpQPDbHQwRN-v0XV1-29" value="Extends" style="endArrow=block;endSize=16;endFill=0;html=1;rounded=0;exitX=0;exitY=0.5;exitDx=0;exitDy=0;entryX=1;entryY=0;entryDx=0;entryDy=0;" parent="1" source="0qslpQPDbHQwRN-v0XV1-25" target="0qslpQPDbHQwRN-v0XV1-26" edge="1">
          <mxGeometry width="160" relative="1" as="geometry">
            <mxPoint x="1450" y="620" as="sourcePoint" />
            <mxPoint x="1400" y="790" as="targetPoint" />
          </mxGeometry>
        </mxCell>
        <mxCell id="0qslpQPDbHQwRN-v0XV1-31" value="Use" style="endArrow=open;endSize=12;dashed=1;html=1;rounded=0;exitX=0;exitY=0.5;exitDx=0;exitDy=0;entryX=1;entryY=0.5;entryDx=0;entryDy=0;" parent="1" source="0qslpQPDbHQwRN-v0XV1-20" target="0qslpQPDbHQwRN-v0XV1-5" edge="1">
          <mxGeometry width="160" relative="1" as="geometry">
            <mxPoint x="1735" y="180" as="sourcePoint" />
            <mxPoint x="1215" y="-360" as="targetPoint" />
          </mxGeometry>
        </mxCell>
        <mxCell id="0qslpQPDbHQwRN-v0XV1-32" value="Use" style="endArrow=open;endSize=12;dashed=1;html=1;rounded=0;entryX=1;entryY=0.5;entryDx=0;entryDy=0;exitX=0;exitY=0.5;exitDx=0;exitDy=0;" parent="1" source="0qslpQPDbHQwRN-v0XV1-18" target="0qslpQPDbHQwRN-v0XV1-2" edge="1">
          <mxGeometry width="160" relative="1" as="geometry">
            <mxPoint x="1370" y="310" as="sourcePoint" />
            <mxPoint x="520" y="180" as="targetPoint" />
          </mxGeometry>
        </mxCell>
        <mxCell id="0qslpQPDbHQwRN-v0XV1-33" value="Use" style="endArrow=open;endSize=12;dashed=1;html=1;rounded=0;entryX=1;entryY=0.5;entryDx=0;entryDy=0;exitX=0;exitY=0.5;exitDx=0;exitDy=0;" parent="1" source="0qslpQPDbHQwRN-v0XV1-18" target="0qslpQPDbHQwRN-v0XV1-3" edge="1">
          <mxGeometry width="160" relative="1" as="geometry">
            <mxPoint x="1360" y="300" as="sourcePoint" />
            <mxPoint x="680" y="310" as="targetPoint" />
          </mxGeometry>
        </mxCell>
        <mxCell id="0qslpQPDbHQwRN-v0XV1-36" value="&lt;p style=&quot;margin: 0px ; margin-top: 4px ; text-align: center&quot;&gt;&lt;i&gt;PageHeader&lt;/i&gt;&lt;br&gt;&lt;/p&gt;&lt;hr size=&quot;1&quot;&gt;&lt;p style=&quot;margin: 0px ; margin-left: 4px&quot;&gt;?&lt;/p&gt;&lt;hr size=&quot;1&quot;&gt;&lt;p style=&quot;margin: 0px ; margin-left: 4px&quot;&gt;+ method1(Type): Type&lt;br&gt;+ method2(Type, Type): Type&lt;/p&gt;" style="verticalAlign=top;align=left;overflow=fill;fontSize=12;fontFamily=Helvetica;html=1;rounded=0;shadow=0;comic=0;labelBackgroundColor=none;strokeWidth=1" parent="1" vertex="1">
          <mxGeometry x="1280" y="-240" width="190" height="120" as="geometry" />
        </mxCell>
        <mxCell id="0qslpQPDbHQwRN-v0XV1-37" value="Use" style="endArrow=open;endSize=12;dashed=1;html=1;rounded=0;entryX=0.5;entryY=0;entryDx=0;entryDy=0;exitX=0.5;exitY=1;exitDx=0;exitDy=0;" parent="1" source="0qslpQPDbHQwRN-v0XV1-21" target="0qslpQPDbHQwRN-v0XV1-36" edge="1">
          <mxGeometry width="160" relative="1" as="geometry">
            <mxPoint x="1945" y="30" as="sourcePoint" />
            <mxPoint x="1495" y="30" as="targetPoint" />
          </mxGeometry>
        </mxCell>
        <mxCell id="fuyfgmNVLUuhkr_44X1W-4" value="&lt;p style=&quot;margin: 0px ; margin-top: 4px ; text-align: center&quot;&gt;&lt;i&gt;Document&lt;/i&gt;&lt;/p&gt;&lt;hr size=&quot;1&quot;&gt;&lt;p style=&quot;margin: 0px ; margin-left: 4px&quot;&gt;content: Paragraph[]&lt;/p&gt;&lt;p style=&quot;margin: 0px ; margin-left: 4px&quot;&gt;pages: Page[]&lt;/p&gt;&lt;p style=&quot;margin: 0px ; margin-left: 4px&quot;&gt;setting: DocumentSetting&lt;/p&gt;&lt;hr size=&quot;1&quot;&gt;&lt;p style=&quot;margin: 0px ; margin-left: 4px&quot;&gt;+ method1(Type): Type&lt;br&gt;+ method2(Type, Type): Type&lt;/p&gt;" style="verticalAlign=top;align=left;overflow=fill;fontSize=12;fontFamily=Helvetica;html=1;rounded=0;shadow=0;comic=0;labelBackgroundColor=none;strokeWidth=1" parent="1" vertex="1">
          <mxGeometry x="1935" y="-420" width="190" height="120" as="geometry" />
        </mxCell>
        <mxCell id="fuyfgmNVLUuhkr_44X1W-5" value="Use" style="endArrow=open;endSize=12;dashed=1;html=1;rounded=0;entryX=1;entryY=0;entryDx=0;entryDy=0;exitX=0.5;exitY=1;exitDx=0;exitDy=0;" parent="1" source="fuyfgmNVLUuhkr_44X1W-4" target="0qslpQPDbHQwRN-v0XV1-16" edge="1">
          <mxGeometry width="160" relative="1" as="geometry">
            <mxPoint x="2010" y="-230" as="sourcePoint" />
            <mxPoint x="1865" y="-110" as="targetPoint" />
          </mxGeometry>
        </mxCell>
        <mxCell id="fuyfgmNVLUuhkr_44X1W-6" value="Use" style="endArrow=open;endSize=12;dashed=1;html=1;rounded=0;entryX=1;entryY=0.25;entryDx=0;entryDy=0;exitX=0;exitY=0.25;exitDx=0;exitDy=0;" parent="1" source="fuyfgmNVLUuhkr_44X1W-4" target="fuyfgmNVLUuhkr_44X1W-10" edge="1">
          <mxGeometry width="160" relative="1" as="geometry">
            <mxPoint x="1945" y="-350" as="sourcePoint" />
            <mxPoint x="1800" y="-230" as="targetPoint" />
          </mxGeometry>
        </mxCell>
        <mxCell id="fuyfgmNVLUuhkr_44X1W-7" value="&lt;p style=&quot;margin: 0px ; margin-top: 4px ; text-align: center&quot;&gt;&lt;i&gt;DocumentSetting&lt;/i&gt;&lt;/p&gt;&lt;hr size=&quot;1&quot;&gt;&lt;p style=&quot;margin: 0px ; margin-left: 4px&quot;&gt;pageSetting&lt;/p&gt;&lt;p style=&quot;margin: 0px ; margin-left: 4px&quot;&gt;columnSetting&lt;/p&gt;&lt;hr size=&quot;1&quot;&gt;&lt;p style=&quot;margin: 0px ; margin-left: 4px&quot;&gt;+ method1(Type): Type&lt;br&gt;+ method2(Type, Type): Type&lt;/p&gt;" style="verticalAlign=top;align=left;overflow=fill;fontSize=12;fontFamily=Helvetica;html=1;rounded=0;shadow=0;comic=0;labelBackgroundColor=none;strokeWidth=1" parent="1" vertex="1">
          <mxGeometry x="1585" y="-590" width="190" height="120" as="geometry" />
        </mxCell>
        <mxCell id="fuyfgmNVLUuhkr_44X1W-8" value="Use" style="endArrow=open;endSize=12;dashed=1;html=1;rounded=0;entryX=1;entryY=0.5;entryDx=0;entryDy=0;exitX=0;exitY=0;exitDx=0;exitDy=0;" parent="1" source="fuyfgmNVLUuhkr_44X1W-4" target="fuyfgmNVLUuhkr_44X1W-7" edge="1">
          <mxGeometry width="160" relative="1" as="geometry">
            <mxPoint x="1944.9999999999995" y="-380" as="sourcePoint" />
            <mxPoint x="1785" y="-380" as="targetPoint" />
          </mxGeometry>
        </mxCell>
        <mxCell id="fuyfgmNVLUuhkr_44X1W-10" value="&lt;p style=&quot;margin: 0px ; margin-top: 4px ; text-align: center&quot;&gt;&lt;i&gt;Paper&lt;/i&gt;&lt;br&gt;&lt;/p&gt;&lt;hr size=&quot;1&quot;&gt;&lt;p style=&quot;margin: 0px ; margin-left: 4px&quot;&gt;content: Page[]&lt;/p&gt;&lt;hr size=&quot;1&quot;&gt;&lt;p style=&quot;margin: 0px ; margin-left: 4px&quot;&gt;+ method1(Type): Type&lt;br&gt;+ method2(Type, Type): Type&lt;/p&gt;" style="verticalAlign=top;align=left;overflow=fill;fontSize=12;fontFamily=Helvetica;html=1;rounded=0;shadow=0;comic=0;labelBackgroundColor=none;strokeWidth=1" parent="1" vertex="1">
          <mxGeometry x="1585" y="-420" width="190" height="120" as="geometry" />
        </mxCell>
        <mxCell id="fuyfgmNVLUuhkr_44X1W-11" value="Use" style="endArrow=open;endSize=12;dashed=1;html=1;rounded=0;entryX=1;entryY=0.25;entryDx=0;entryDy=0;exitX=0;exitY=0.25;exitDx=0;exitDy=0;" parent="1" source="fuyfgmNVLUuhkr_44X1W-10" target="0qslpQPDbHQwRN-v0XV1-21" edge="1">
          <mxGeometry width="160" relative="1" as="geometry">
            <mxPoint x="1945" y="-380" as="sourcePoint" />
            <mxPoint x="1785" y="-380" as="targetPoint" />
          </mxGeometry>
        </mxCell>
        <mxCell id="fuyfgmNVLUuhkr_44X1W-13" value="&lt;p style=&quot;margin: 0px ; margin-top: 4px ; text-align: center&quot;&gt;&lt;i&gt;WidgetRun&lt;/i&gt;&lt;/p&gt;&lt;hr size=&quot;1&quot;&gt;&lt;p style=&quot;margin: 0px ; margin-left: 4px&quot;&gt;content: BaseWidget&lt;br&gt;&lt;/p&gt;&lt;hr size=&quot;1&quot;&gt;&lt;p style=&quot;margin: 0px ; margin-left: 4px&quot;&gt;+ method1(Type): Type&lt;br&gt;+ method2(Type, Type): Type&lt;/p&gt;" style="verticalAlign=top;align=left;overflow=fill;fontSize=12;fontFamily=Helvetica;html=1;rounded=0;shadow=0;comic=0;labelBackgroundColor=none;strokeWidth=1" parent="1" vertex="1">
          <mxGeometry x="440" y="-420" width="190" height="120" as="geometry" />
        </mxCell>
        <mxCell id="fuyfgmNVLUuhkr_44X1W-14" value="Use" style="endArrow=open;endSize=12;dashed=1;html=1;rounded=0;exitX=0.5;exitY=1;exitDx=0;exitDy=0;entryX=0.25;entryY=0;entryDx=0;entryDy=0;" parent="1" source="fuyfgmNVLUuhkr_44X1W-13" target="0qslpQPDbHQwRN-v0XV1-6" edge="1">
          <mxGeometry width="160" relative="1" as="geometry">
            <mxPoint x="730" y="-350" as="sourcePoint" />
            <mxPoint x="520" y="-350" as="targetPoint" />
          </mxGeometry>
        </mxCell>
        <mxCell id="fuyfgmNVLUuhkr_44X1W-17" style="edgeStyle=orthogonalEdgeStyle;rounded=0;orthogonalLoop=1;jettySize=auto;html=1;exitX=0.5;exitY=1;exitDx=0;exitDy=0;exitPerimeter=0;entryX=0.5;entryY=0;entryDx=0;entryDy=0;entryPerimeter=0;" parent="1" source="fuyfgmNVLUuhkr_44X1W-15" target="fuyfgmNVLUuhkr_44X1W-22" edge="1">
          <mxGeometry relative="1" as="geometry">
            <mxPoint x="3130" y="-560" as="targetPoint" />
          </mxGeometry>
        </mxCell>
        <mxCell id="fuyfgmNVLUuhkr_44X1W-15" value="开始" style="strokeWidth=2;html=1;shape=mxgraph.flowchart.start_1;whiteSpace=wrap;" parent="1" vertex="1">
          <mxGeometry x="3080" y="-640" width="100" height="40" as="geometry" />
        </mxCell>
        <mxCell id="fuyfgmNVLUuhkr_44X1W-28" style="edgeStyle=orthogonalEdgeStyle;rounded=0;orthogonalLoop=1;jettySize=auto;html=1;exitX=0.5;exitY=1;exitDx=0;exitDy=0;entryX=0.5;entryY=0;entryDx=0;entryDy=0;entryPerimeter=0;" parent="1" source="fuyfgmNVLUuhkr_44X1W-18" target="fuyfgmNVLUuhkr_44X1W-27" edge="1">
          <mxGeometry relative="1" as="geometry" />
        </mxCell>
        <mxCell id="fuyfgmNVLUuhkr_44X1W-18" value="创建新line&lt;br&gt;创建新page" style="rounded=1;whiteSpace=wrap;html=1;absoluteArcSize=1;arcSize=14;strokeWidth=2;" parent="1" vertex="1">
          <mxGeometry x="3080" y="-420" width="100" height="40" as="geometry" />
        </mxCell>
        <mxCell id="fuyfgmNVLUuhkr_44X1W-21" value="结束" style="strokeWidth=2;html=1;shape=mxgraph.flowchart.start_1;whiteSpace=wrap;" parent="1" vertex="1">
          <mxGeometry x="3080" y="430" width="100" height="40" as="geometry" />
        </mxCell>
        <mxCell id="fuyfgmNVLUuhkr_44X1W-24" value="Y" style="edgeStyle=orthogonalEdgeStyle;rounded=0;orthogonalLoop=1;jettySize=auto;html=1;exitX=0.5;exitY=1;exitDx=0;exitDy=0;exitPerimeter=0;entryX=0.5;entryY=0;entryDx=0;entryDy=0;" parent="1" source="fuyfgmNVLUuhkr_44X1W-22" target="fuyfgmNVLUuhkr_44X1W-18" edge="1">
          <mxGeometry relative="1" as="geometry" />
        </mxCell>
        <mxCell id="fuyfgmNVLUuhkr_44X1W-26" style="edgeStyle=orthogonalEdgeStyle;rounded=0;orthogonalLoop=1;jettySize=auto;html=1;exitX=1;exitY=0.5;exitDx=0;exitDy=0;exitPerimeter=0;entryX=1;entryY=0.5;entryDx=0;entryDy=0;entryPerimeter=0;" parent="1" source="fuyfgmNVLUuhkr_44X1W-22" target="fuyfgmNVLUuhkr_44X1W-21" edge="1">
          <mxGeometry relative="1" as="geometry">
            <Array as="points">
              <mxPoint x="3240" y="-510" />
              <mxPoint x="3240" y="450" />
            </Array>
          </mxGeometry>
        </mxCell>
        <mxCell id="fuyfgmNVLUuhkr_44X1W-29" value="N&lt;br&gt;" style="edgeLabel;html=1;align=center;verticalAlign=middle;resizable=0;points=[];" parent="fuyfgmNVLUuhkr_44X1W-26" vertex="1" connectable="0">
          <mxGeometry x="0.2283" y="2" relative="1" as="geometry">
            <mxPoint as="offset" />
          </mxGeometry>
        </mxCell>
        <mxCell id="fuyfgmNVLUuhkr_44X1W-22" value="查找下一个paragraph" style="strokeWidth=2;html=1;shape=mxgraph.flowchart.decision;whiteSpace=wrap;" parent="1" vertex="1">
          <mxGeometry x="3080" y="-560" width="100" height="100" as="geometry" />
        </mxCell>
        <mxCell id="fuyfgmNVLUuhkr_44X1W-31" value="Y" style="edgeStyle=orthogonalEdgeStyle;rounded=0;orthogonalLoop=1;jettySize=auto;html=1;exitX=0.5;exitY=1;exitDx=0;exitDy=0;exitPerimeter=0;entryX=0.5;entryY=0;entryDx=0;entryDy=0;entryPerimeter=0;" parent="1" source="fuyfgmNVLUuhkr_44X1W-27" target="fuyfgmNVLUuhkr_44X1W-33" edge="1">
          <mxGeometry relative="1" as="geometry">
            <mxPoint x="3130" y="-200" as="targetPoint" />
          </mxGeometry>
        </mxCell>
        <mxCell id="fuyfgmNVLUuhkr_44X1W-27" value="查找下一个&lt;br&gt;widget" style="strokeWidth=2;html=1;shape=mxgraph.flowchart.decision;whiteSpace=wrap;" parent="1" vertex="1">
          <mxGeometry x="3080" y="-340" width="100" height="100" as="geometry" />
        </mxCell>
        <mxCell id="fuyfgmNVLUuhkr_44X1W-32" value="N" style="edgeStyle=orthogonalEdgeStyle;rounded=0;orthogonalLoop=1;jettySize=auto;html=1;exitX=0;exitY=0.5;exitDx=0;exitDy=0;entryX=0;entryY=0.5;entryDx=0;entryDy=0;entryPerimeter=0;exitPerimeter=0;" parent="1" source="fuyfgmNVLUuhkr_44X1W-27" target="fuyfgmNVLUuhkr_44X1W-22" edge="1">
          <mxGeometry relative="1" as="geometry">
            <Array as="points">
              <mxPoint x="2920" y="-290" />
              <mxPoint x="2920" y="-510" />
            </Array>
          </mxGeometry>
        </mxCell>
        <mxCell id="fuyfgmNVLUuhkr_44X1W-34" style="edgeStyle=orthogonalEdgeStyle;rounded=0;orthogonalLoop=1;jettySize=auto;html=1;exitX=0;exitY=0.5;exitDx=0;exitDy=0;exitPerimeter=0;entryX=1;entryY=0.5;entryDx=0;entryDy=0;" parent="1" source="fuyfgmNVLUuhkr_44X1W-33" target="fuyfgmNVLUuhkr_44X1W-46" edge="1">
          <mxGeometry relative="1" as="geometry">
            <Array as="points">
              <mxPoint x="3060" y="-130" />
              <mxPoint x="3060" y="-130" />
            </Array>
          </mxGeometry>
        </mxCell>
        <mxCell id="fuyfgmNVLUuhkr_44X1W-35" value="Y" style="edgeLabel;html=1;align=center;verticalAlign=middle;resizable=0;points=[];" parent="fuyfgmNVLUuhkr_44X1W-34" vertex="1" connectable="0">
          <mxGeometry x="0.1008" relative="1" as="geometry">
            <mxPoint as="offset" />
          </mxGeometry>
        </mxCell>
        <mxCell id="fuyfgmNVLUuhkr_44X1W-37" style="edgeStyle=orthogonalEdgeStyle;rounded=0;orthogonalLoop=1;jettySize=auto;html=1;exitX=0.5;exitY=1;exitDx=0;exitDy=0;exitPerimeter=0;entryX=0.5;entryY=0;entryDx=0;entryDy=0;" parent="1" source="fuyfgmNVLUuhkr_44X1W-33" target="fuyfgmNVLUuhkr_44X1W-36" edge="1">
          <mxGeometry relative="1" as="geometry" />
        </mxCell>
        <mxCell id="fuyfgmNVLUuhkr_44X1W-42" value="N" style="edgeLabel;html=1;align=center;verticalAlign=middle;resizable=0;points=[];" parent="fuyfgmNVLUuhkr_44X1W-37" vertex="1" connectable="0">
          <mxGeometry x="-0.2571" relative="1" as="geometry">
            <mxPoint as="offset" />
          </mxGeometry>
        </mxCell>
        <mxCell id="fuyfgmNVLUuhkr_44X1W-33" value="line剩余宽度&lt;br&gt;&amp;gt;&lt;br&gt;widget宽度" style="strokeWidth=2;html=1;shape=mxgraph.flowchart.decision;whiteSpace=wrap;" parent="1" vertex="1">
          <mxGeometry x="3080" y="-180" width="100" height="100" as="geometry" />
        </mxCell>
        <mxCell id="fuyfgmNVLUuhkr_44X1W-40" style="edgeStyle=orthogonalEdgeStyle;rounded=0;orthogonalLoop=1;jettySize=auto;html=1;exitX=0.5;exitY=1;exitDx=0;exitDy=0;entryX=0.5;entryY=0;entryDx=0;entryDy=0;entryPerimeter=0;" parent="1" source="fuyfgmNVLUuhkr_44X1W-36" target="fuyfgmNVLUuhkr_44X1W-39" edge="1">
          <mxGeometry relative="1" as="geometry" />
        </mxCell>
        <mxCell id="fuyfgmNVLUuhkr_44X1W-43" style="edgeStyle=orthogonalEdgeStyle;rounded=0;orthogonalLoop=1;jettySize=auto;html=1;exitX=1;exitY=0.5;exitDx=0;exitDy=0;entryX=1;entryY=0.5;entryDx=0;entryDy=0;entryPerimeter=0;" parent="1" source="fuyfgmNVLUuhkr_44X1W-38" target="fuyfgmNVLUuhkr_44X1W-27" edge="1">
          <mxGeometry relative="1" as="geometry">
            <mxPoint x="3199.9999999999995" y="-70" as="targetPoint" />
            <Array as="points">
              <mxPoint x="3220" y="220" />
              <mxPoint x="3220" y="-290" />
            </Array>
          </mxGeometry>
        </mxCell>
        <mxCell id="fuyfgmNVLUuhkr_44X1W-45" value="Y" style="edgeLabel;html=1;align=center;verticalAlign=middle;resizable=0;points=[];" parent="fuyfgmNVLUuhkr_44X1W-43" vertex="1" connectable="0">
          <mxGeometry x="-0.33" y="-1" relative="1" as="geometry">
            <mxPoint as="offset" />
          </mxGeometry>
        </mxCell>
        <mxCell id="fuyfgmNVLUuhkr_44X1W-47" style="edgeStyle=orthogonalEdgeStyle;rounded=0;orthogonalLoop=1;jettySize=auto;html=1;exitX=0;exitY=0.5;exitDx=0;exitDy=0;entryX=0.5;entryY=1;entryDx=0;entryDy=0;" parent="1" source="fuyfgmNVLUuhkr_44X1W-36" target="fuyfgmNVLUuhkr_44X1W-46" edge="1">
          <mxGeometry relative="1" as="geometry" />
        </mxCell>
        <mxCell id="fuyfgmNVLUuhkr_44X1W-36" value="创建新line" style="rounded=1;whiteSpace=wrap;html=1;absoluteArcSize=1;arcSize=14;strokeWidth=2;" parent="1" vertex="1">
          <mxGeometry x="3080" y="-30" width="100" height="40" as="geometry" />
        </mxCell>
        <mxCell id="fuyfgmNVLUuhkr_44X1W-38" value="创建新page" style="rounded=1;whiteSpace=wrap;html=1;absoluteArcSize=1;arcSize=14;strokeWidth=2;" parent="1" vertex="1">
          <mxGeometry x="3080" y="200" width="100" height="40" as="geometry" />
        </mxCell>
        <mxCell id="fuyfgmNVLUuhkr_44X1W-41" value="N" style="edgeStyle=orthogonalEdgeStyle;rounded=0;orthogonalLoop=1;jettySize=auto;html=1;exitX=0.5;exitY=1;exitDx=0;exitDy=0;exitPerimeter=0;entryX=0.5;entryY=0;entryDx=0;entryDy=0;" parent="1" source="fuyfgmNVLUuhkr_44X1W-39" target="fuyfgmNVLUuhkr_44X1W-38" edge="1">
          <mxGeometry relative="1" as="geometry" />
        </mxCell>
        <mxCell id="fuyfgmNVLUuhkr_44X1W-49" style="edgeStyle=orthogonalEdgeStyle;rounded=0;orthogonalLoop=1;jettySize=auto;html=1;exitX=0;exitY=0.5;exitDx=0;exitDy=0;exitPerimeter=0;entryX=1;entryY=0.5;entryDx=0;entryDy=0;" parent="1" source="fuyfgmNVLUuhkr_44X1W-39" target="fuyfgmNVLUuhkr_44X1W-48" edge="1">
          <mxGeometry relative="1" as="geometry" />
        </mxCell>
        <mxCell id="fuyfgmNVLUuhkr_44X1W-50" value="Y" style="edgeLabel;html=1;align=center;verticalAlign=middle;resizable=0;points=[];" parent="fuyfgmNVLUuhkr_44X1W-49" vertex="1" connectable="0">
          <mxGeometry x="-0.1048" y="-2" relative="1" as="geometry">
            <mxPoint x="-1" as="offset" />
          </mxGeometry>
        </mxCell>
        <mxCell id="fuyfgmNVLUuhkr_44X1W-39" value="page剩余高度&lt;br&gt;&amp;gt;&lt;br&gt;line高度" style="strokeWidth=2;html=1;shape=mxgraph.flowchart.decision;whiteSpace=wrap;" parent="1" vertex="1">
          <mxGeometry x="3080" y="50" width="100" height="100" as="geometry" />
        </mxCell>
        <mxCell id="fuyfgmNVLUuhkr_44X1W-46" value="widget添加到&lt;br&gt;line" style="rounded=1;whiteSpace=wrap;html=1;absoluteArcSize=1;arcSize=14;strokeWidth=2;" parent="1" vertex="1">
          <mxGeometry x="2910" y="-150" width="100" height="40" as="geometry" />
        </mxCell>
        <mxCell id="fuyfgmNVLUuhkr_44X1W-48" value="line添加到page" style="rounded=1;whiteSpace=wrap;html=1;absoluteArcSize=1;arcSize=14;strokeWidth=2;" parent="1" vertex="1">
          <mxGeometry x="2910" y="80" width="100" height="40" as="geometry" />
        </mxCell>
        <mxCell id="eiwNIzdNadxtpNHis9UP-1" value="&lt;p style=&quot;margin: 0px ; margin-top: 4px ; text-align: center&quot;&gt;&lt;i&gt;Writer&lt;/i&gt;&lt;br&gt;&lt;/p&gt;&lt;hr size=&quot;1&quot;&gt;&lt;p style=&quot;margin: 0px ; margin-left: 4px&quot;&gt;document: Document&lt;/p&gt;&lt;p style=&quot;margin: 0px ; margin-left: 4px&quot;&gt;history: History&lt;/p&gt;&lt;p style=&quot;margin: 0px ; margin-left: 4px&quot;&gt;commands&lt;/p&gt;&lt;p style=&quot;margin: 0px ; margin-left: 4px&quot;&gt;range:&amp;nbsp;DocumentRange&lt;/p&gt;&lt;hr size=&quot;1&quot;&gt;&lt;p style=&quot;margin: 0px ; margin-left: 4px&quot;&gt;execCommand(name, args, options)&lt;br&gt;&lt;/p&gt;&lt;p style=&quot;margin: 0px ; margin-left: 4px&quot;&gt;recalculate()&lt;br&gt;&lt;/p&gt;&lt;p style=&quot;margin: 0px ; margin-left: 4px&quot;&gt;step(num)&lt;br&gt;&lt;/p&gt;" style="verticalAlign=top;align=left;overflow=fill;fontSize=12;fontFamily=Helvetica;html=1;rounded=0;shadow=0;comic=0;labelBackgroundColor=none;strokeWidth=1" vertex="1" parent="1">
          <mxGeometry x="2520" y="80" width="240" height="160" as="geometry" />
        </mxCell>
        <mxCell id="eiwNIzdNadxtpNHis9UP-2" value="Use" style="endArrow=open;endSize=12;dashed=1;html=1;rounded=0;entryX=1;entryY=1;entryDx=0;entryDy=0;exitX=0.5;exitY=0;exitDx=0;exitDy=0;" edge="1" parent="1" source="eiwNIzdNadxtpNHis9UP-1" target="fuyfgmNVLUuhkr_44X1W-4">
          <mxGeometry width="160" relative="1" as="geometry">
            <mxPoint x="1945" y="-380" as="sourcePoint" />
            <mxPoint x="1785" y="-380" as="targetPoint" />
          </mxGeometry>
        </mxCell>
        <mxCell id="eiwNIzdNadxtpNHis9UP-3" value="&lt;p style=&quot;margin: 0px ; margin-top: 4px ; text-align: center&quot;&gt;&lt;i&gt;History&lt;/i&gt;&lt;br&gt;&lt;/p&gt;&lt;hr size=&quot;1&quot;&gt;&lt;p style=&quot;margin: 0px ; margin-left: 4px&quot;&gt;points: Point[]&lt;/p&gt;&lt;p style=&quot;margin: 0px ; margin-left: 4px&quot;&gt;index: number&lt;/p&gt;&lt;hr size=&quot;1&quot;&gt;&lt;p style=&quot;margin: 0px ; margin-left: 4px&quot;&gt;savePoint(action, range, args, data)&lt;br&gt;&lt;/p&gt;&lt;p style=&quot;margin: 0px ; margin-left: 4px&quot;&gt;step(num)&lt;/p&gt;" style="verticalAlign=top;align=left;overflow=fill;fontSize=12;fontFamily=Helvetica;html=1;rounded=0;shadow=0;comic=0;labelBackgroundColor=none;strokeWidth=1" vertex="1" parent="1">
          <mxGeometry x="2180" y="80" width="240" height="160" as="geometry" />
        </mxCell>
        <mxCell id="eiwNIzdNadxtpNHis9UP-4" value="&lt;p style=&quot;margin: 0px ; margin-top: 4px ; text-align: center&quot;&gt;&lt;i&gt;DocumentRange&lt;/i&gt;&lt;br&gt;&lt;/p&gt;&lt;hr size=&quot;1&quot;&gt;&lt;p style=&quot;margin: 0px ; margin-left: 4px&quot;&gt;startId: string&lt;/p&gt;&lt;p style=&quot;margin: 0px ; margin-left: 4px&quot;&gt;startPos: number&lt;/p&gt;&lt;p style=&quot;margin: 0px ; margin-left: 4px&quot;&gt;endId: string&lt;/p&gt;&lt;p style=&quot;margin: 0px ; margin-left: 4px&quot;&gt;endPos: number&lt;/p&gt;&lt;p style=&quot;margin: 0px ; margin-left: 4px&quot;&gt;type: string;&lt;br&gt;&lt;/p&gt;&lt;hr size=&quot;1&quot;&gt;&lt;p style=&quot;margin: 0px ; margin-left: 4px&quot;&gt;&lt;br&gt;&lt;/p&gt;" style="verticalAlign=top;align=left;overflow=fill;fontSize=12;fontFamily=Helvetica;html=1;rounded=0;shadow=0;comic=0;labelBackgroundColor=none;strokeWidth=1" vertex="1" parent="1">
          <mxGeometry x="2180" y="280" width="240" height="160" as="geometry" />
        </mxCell>
        <mxCell id="eiwNIzdNadxtpNHis9UP-5" value="Use" style="endArrow=open;endSize=12;dashed=1;html=1;rounded=0;entryX=1;entryY=0.5;entryDx=0;entryDy=0;exitX=0;exitY=0.75;exitDx=0;exitDy=0;" edge="1" parent="1" source="eiwNIzdNadxtpNHis9UP-1" target="eiwNIzdNadxtpNHis9UP-4">
          <mxGeometry width="160" relative="1" as="geometry">
            <mxPoint x="2650" y="90" as="sourcePoint" />
            <mxPoint x="2040" y="-290" as="targetPoint" />
          </mxGeometry>
        </mxCell>
        <mxCell id="eiwNIzdNadxtpNHis9UP-6" value="Use" style="endArrow=open;endSize=12;dashed=1;html=1;rounded=0;entryX=1;entryY=0.5;entryDx=0;entryDy=0;exitX=0;exitY=0.5;exitDx=0;exitDy=0;" edge="1" parent="1" source="eiwNIzdNadxtpNHis9UP-1" target="eiwNIzdNadxtpNHis9UP-3">
          <mxGeometry width="160" relative="1" as="geometry">
            <mxPoint x="2530" y="210" as="sourcePoint" />
            <mxPoint x="2430" y="370" as="targetPoint" />
          </mxGeometry>
        </mxCell>
        <mxCell id="eiwNIzdNadxtpNHis9UP-7" value="&lt;p style=&quot;margin: 0px ; margin-top: 4px ; text-align: center&quot;&gt;&lt;i&gt;Point&lt;/i&gt;&lt;br&gt;&lt;/p&gt;&lt;hr size=&quot;1&quot;&gt;&lt;p style=&quot;margin: 0px ; margin-left: 4px&quot;&gt;data&lt;/p&gt;&lt;p style=&quot;margin: 0px ; margin-left: 4px&quot;&gt;action: string&lt;/p&gt;&lt;p style=&quot;margin: 0px ; margin-left: 4px&quot;&gt;range: DocumentRange&lt;/p&gt;&lt;p style=&quot;margin: 0px ; margin-left: 4px&quot;&gt;args&lt;br&gt;&lt;/p&gt;&lt;hr size=&quot;1&quot;&gt;&lt;p style=&quot;margin: 0px ; margin-left: 4px&quot;&gt;&lt;br&gt;&lt;/p&gt;" style="verticalAlign=top;align=left;overflow=fill;fontSize=12;fontFamily=Helvetica;html=1;rounded=0;shadow=0;comic=0;labelBackgroundColor=none;strokeWidth=1" vertex="1" parent="1">
          <mxGeometry x="1880" y="80" width="240" height="160" as="geometry" />
        </mxCell>
        <mxCell id="eiwNIzdNadxtpNHis9UP-8" value="Use" style="endArrow=open;endSize=12;dashed=1;html=1;rounded=0;entryX=0;entryY=0.5;entryDx=0;entryDy=0;exitX=1;exitY=0.75;exitDx=0;exitDy=0;" edge="1" parent="1" source="eiwNIzdNadxtpNHis9UP-7" target="eiwNIzdNadxtpNHis9UP-4">
          <mxGeometry width="160" relative="1" as="geometry">
            <mxPoint x="2530" y="170" as="sourcePoint" />
            <mxPoint x="2430" y="170" as="targetPoint" />
          </mxGeometry>
        </mxCell>
        <mxCell id="eiwNIzdNadxtpNHis9UP-9" value="Use" style="endArrow=open;endSize=12;dashed=1;html=1;rounded=0;entryX=1;entryY=0.5;entryDx=0;entryDy=0;exitX=0;exitY=0.5;exitDx=0;exitDy=0;" edge="1" parent="1" source="eiwNIzdNadxtpNHis9UP-3" target="eiwNIzdNadxtpNHis9UP-7">
          <mxGeometry width="160" relative="1" as="geometry">
            <mxPoint x="2530" y="170" as="sourcePoint" />
            <mxPoint x="2430" y="170" as="targetPoint" />
          </mxGeometry>
        </mxCell>
      </root>
    </mxGraphModel>
  </diagram>
</mxfile>
